{"title":"Repo Man (1984.MULTi.BRRip.720p.x264-STO)TPB","uid":11953540,"size":4598951137,"categoryP":"video","categoryS":"hd___movies","magnet":"?xt=urn:btih:9c79e87bb4d0fd60d5f5b1689518ffa748885914&amp;dn=Repo+Man+%281984.MULTi.BRRip.720p.x264-STO%29TPB&amp;tr=udp%3A%2F%2Ftracker.openbittorrent.com%3A80&amp;tr=udp%3A%2F%2Fopen.demonii.com%3A1337&amp;tr=udp%3A%2F%2Ftracker.coppersurfer.tk%3A6969&amp;tr=udp%3A%2F%2Fexodus.desync.com%3A6969","seeders":0,"leechers":0,"uploader":"stogref","files":9,"time":1432284100,"description":"This is the movie rip only from the steelbook Blu-Ray edition. I added the 4 audio languages that were included in the 2003 DVD edition, as well as the 13 subtitles (+Greek not listed above). This was pretty much of a lot of work but I managed to do it right so enjoy and please seed forever you punks haha!\nAdded the cover scans too, but only 3 extracts from the Repo Code booklet.\n\n\nREPO MAN\n\nDirector: Alex Cox\n\nRelease Date: 2 March 1984 (USA), Blu-Ray: Feb 20 2012\n\nGenre: Comedy | Crime | Sci-Fi\n\nTagline: A repo man life is always intense... but only a fool gets killed for a car.\n\nPlot: Young punk Otto becomes a repo man after helping to steal a car, and stumbles into a world of wackiness as a result.\n\n==========================================================================\nGeneral\nComplete name                    : Repo Man (1984.MULTi.BRRip.720p.x264-STO).mkv\nFormat                           : Matroska\nFile size                        : 4.28 GiB\nDuration                         : 1h 32mn\nOverall bit rate                 : 6 644 Kbps\nEncoded date                     : UTC 2012-09-20 15:38:04\nWriting application              : mkvmerge v2.5.3 ('Boogie') built on Mar  7 2009 15:00:41\nWriting library                  : libebml v0.7.7 + libmatroska v0.8.1\n\nVideo\nID                               : 19\nFormat                           : AVC\nFormat/Info                      : Advanced Video Codec\nFormat profile                   : &lt;a class=&quot;__cf_email__&quot; href=&quot;/cdn-cgi/l/email-protection&quot; data-cfemail=&quot;743c1d131c3438405a45&quot;&gt;[email&amp;#160;protected]&lt;/a&gt;&lt;script data-cfhash='f9e31' type=&quot;text/javascript&quot;&gt;\n/* &lt;![CDATA[ */!function(){try{var t=&quot;currentScript&quot;in document?document.currentScript:function(){for(var t=document.getElementsByTagName(&quot;script&quot;),e=t.length;e--;)if(t[e].getAttribute(&quot;data-cfhash&quot;))return t[e]}();if(t&amp;&amp;t.previousSibling){var e,r,n,i,c=t.previousSibling,a=c.getAttribute(&quot;data-cfemail&quot;);if(a){for(e=&quot;&quot;,r=parseInt(a.substr(0,2),16),n=2;a.length-n;n+=2)i=parseInt(a.substr(n,2),16)^r,e+=String.fromCharCode(i);e=document.createTextNode(e),c.parentNode.replaceChild(e,c)}t.parentNode.removeChild(t);}}catch(u){}}()/* ]]&gt; */&lt;/script&gt;\nFormat settings, CABAC           : Yes\nFormat settings, ReFrames        : 4 frames\nCodec ID                         : V_MPEG4/ISO/AVC\nDuration                         : 1h 32mn\nBit rate mode                    : Variable\nBit rate                         : 6 000 Kbps\nMaximum bit rate                 : 24.0 Mbps\nWidth                            : 1 280 pixels\nHeight                           : 720 pixels\nDisplay aspect ratio             : 16:9\nFrame rate                       : 23.976 fps\nColor space                      : YUV\nChroma subsampling               : 4:2:0\nBit depth                        : 8 bits\nScan type                        : Progressive\nBits/(Pixel*Frame)               : 0.272\nStream size                      : 3.78 GiB (88%)\nWriting library                  : x264 core 78 r1309M 4d77de8\n\n\nAudio #1\nID                               : 14\nFormat                           : MPEG Audio\nFormat version                   : Version 1\nFormat profile                   : Layer 3\nCodec ID                         : A_MPEG/L3\nCodec ID/Hint                    : MP3\nDuration                         : 1h 32mn\nBit rate mode                    : Constant\nBit rate                         : 128 Kbps\nChannel(s)                       : 2 channels\nSampling rate                    : 48.0 KHz\nStream size                      : 84.4 MiB (2%)\nTitle                            : English\nWriting library                  : LAME3.98.2\nLanguage                         : English\n\n=========================================================================\n\n~Download, Seed, Enjoy!~\n\nMore nifty subculture shares on me lousy blog, give it a look, all you can eat:  &lt;a href=&quot;\nhttp://deathburger.doodlekit.com&quot; rel=&quot;nofollow&quot; target=&quot;_NEW&quot;&gt;\nhttp://deathburger.doodlekit.com&lt;/a&gt;","torrent":{"xt":"urn:btih:9c79e87bb4d0fd60d5f5b1689518ffa748885914","amp;dn":"Repo+Man+%281984.MULTi.BRRip.720p.x264-STO%29TPB","amp;tr":["udp%3A%2F%2Ftracker.openbittorrent.com%3A80","udp%3A%2F%2Fopen.demonii.com%3A1337","udp%3A%2F%2Ftracker.coppersurfer.tk%3A6969","udp%3A%2F%2Fexodus.desync.com%3A6969"],"infoHash":"9c79e87bb4d0fd60d5f5b1689518ffa748885914","infoHashBuffer":{"type":"Buffer","data":[156,121,232,123,180,208,253,96,213,245,177,104,149,24,255,167,72,136,89,20]},"announce":[],"urlList":[]}}